#!OML:ASF F:\VICON\USERDATA\INSTALL\rory3\rory3.ASF
:FULLY-SPECIFIED
:DEGREES
326
root 4.53883 17.9424 14.6555 130.479 -87.1742 -129.748
lowerback 12.7209 1.94015 0.679353
upperback 1.20305 2.64057 0.492916
thorax -5.85695 1.25857 -0.324904
lowerneck -19.2214 -7.63412 -12.8645
upperneck 26.7887 -11.0842 12.2987
head 13.7711 -4.79727 5.01207
rclavicle -6.79595e-015 -5.51627e-015
rhumerus -32.7272 -12.0815 -81.9567
rradius 31.7406
rwrist 5.3085
rhand -15.8758 10.4151
rfingers 7.12502
rthumb 10.3199 -19.3117
lclavicle -6.79595e-015 -5.51627e-015
lhumerus -35.8927 0.803291 83.405
lradius 39.6449
lwrist -0.235997
lhand -20.8268 24.6247
lfingers 7.12502
lthumb 5.5416 54.5322
rfemur -5.39465 0.0359626 29.0942
rtibia 25.2457
rfoot -15.82 -4.45393
rtoes 27.5272
lfemur -20.57 0.0476774 -14.1872
ltibia 50.3022
lfoot -7.19232 4.2527
ltoes -15.4573
327
root 4.42392 17.9294 14.6716 135.264 -86.9598 -134.622
lowerback 12.7222 1.96526 0.733237
upperback 1.26289 2.68063 0.526208
thorax -5.79329 1.27697 -0.325892
lowerneck -19.3436 -7.58745 -12.9719
upperneck 26.8189 -10.9492 12.2612
head 13.7922 -4.74809 5.04153
rclavicle 7.62836e-015 9.34288e-015
rhumerus -32.3141 -11.57 -82.1326
rradius 32.115
rwrist 5.34247
rhand -15.848 9.86718
rfingers 7.12502
rthumb 10.3468 -19.8583
lclavicle 7.62836e-015 9.34288e-015
lhumerus -36.0191 1.00666 83.624
lradius 39.277
lwrist -0.750647
lhand -20.7541 24.4761
lfingers 7.12502
lthumb 5.6118 54.3818
rfemur -4.82748 0.0446318 29.0356
rtibia 25.1604
rfoot -16.1767 -4.54942
rtoes 25.8427
lfemur -21.0267 -0.26607 -14.1759
ltibia 48.8524
lfoot -7.29261 4.72225
ltoes -15.8766
328
root 4.30671 17.9211 14.6851 138.387 -86.7346 -137.881
lowerback 12.8168 1.9859 0.898549
upperback 1.29752 2.72767 0.490358
thorax -5.79922 1.29478 -0.46723
lowerneck -19.3295 -7.53829 -12.8572
upperneck 26.7236 -10.8476 12.1099
head 13.7122 -4.70912 4.97616
rclavicle 2.52084e-014 -9.93923e-017
rhumerus -32.0356 -11.3913 -82.2743
rradius 32.5275
rwrist 6.00401
rhand -15.3423 9.36592
rfingers 7.12502
rthumb 10.8346 -20.3346
lclavicle 2.52084e-014 -9.93923e-017
lhumerus -36.1596 1.07294 83.7249
lradius 38.8861
lwrist -1.25584
lhand -20.479 24.4327
lfingers 7.12502
lthumb 5.8774 54.3312
rfemur -4.15078 0.189354 29.035
rtibia 24.9955
rfoot -16.4638 -4.71251
rtoes 24.5225
lfemur -21.3526 -0.543278 -14.0879
ltibia 47.2238
lfoot -7.37344 4.87465
ltoes -16.091
329
root 4.19009 17.914 14.6959 140.868 -86.4667 -140.407
lowerback 12.8092 1.99128 0.98315
upperback 1.32635 2.74647 0.513901
thorax -5.76147 1.30216 -0.492349
lowerneck -19.4174 -7.4809 -12.7637
upperneck 26.6595 -10.7143 11.9516
head 13.6637 -4.65498 4.91762
rclavicle 1.73253e-014 6.95746e-016
rhumerus -31.6818 -11.0085 -82.4946
rradius 32.7564
rwrist 6.04538
rhand -15.3724 9.53762
rfingers 7.12502
rthumb 10.8056 -20.1644
lclavicle 1.73253e-014 6.95746e-016
lhumerus -36.2863 1.18435 83.8266
lradius 38.4827
lwrist -1.68199
lhand -20.0162 24.269
lfingers 7.12502
lthumb 6.32417 54.1546
rfemur -3.50951 0.452157 29.0823
rtibia 24.7226
rfoot -16.7005 -4.81268
rtoes 24.3158
lfemur -21.7093 -0.694138 -13.9395
ltibia 45.4534
lfoot -7.42179 4.81842
ltoes -16.1073
330
root 4.07202 17.905 14.7076 143.319 -86.1631 -142.843
lowerback 12.741 2.05382 1.06601
upperback 1.29821 2.84141 0.512209
thorax -5.74799 1.34729 -0.555171
lowerneck -19.3855 -7.4336 -12.5935
upperneck 26.6445 -10.6476 11.7828
head 13.6155 -4.63004 4.8321
rclavicle 1.9866e-014 -6.90777e-015
rhumerus -31.4237 -10.8505 -82.679
rradius 32.8634
rwrist 5.54599
rhand -15.783 10.349
rfingers 7.12502
rthumb 10.4095 -19.3733
lclavicle 1.9866e-014 -6.90777e-015
lhumerus -36.4505 1.22806 83.9078
lradius 38.0146
lwrist -2.20362
lhand -19.735 24.2673
lfingers 7.12502
lthumb 6.59566 54.1445
rfemur -2.91419 0.654336 29.095
rtibia 24.3856
rfoot -16.8847 -4.78986
rtoes 24.6135
lfemur -22.0418 -0.841283 -13.7966
ltibia 43.5386
lfoot -7.31475 4.79935
ltoes -16.7388
